<svg xmlns="http://www.w3.org/2000/svg" height="80px" viewBox="0 0 281.91 272">
    <defs>
        <style>.cls-1{fill:#AA9053;}</style>
    </defs>
    <g id="Layer_2" data-name="Layer 2">
        <g id="icons">
            <polygon class="cls-1" points="281.91 25.33 281.9 272 229.05 272 229.05 18.72 168.1 34.8 168.1 258.24 180.05 258.24 180.23 272 94.88 272 94.88 66.05 33.59 82.59 33.59 272 0 272 0 256.8 19.27 256.58 19.27 70.48 109.57 46.8 147.56 72.13 147.56 257.13 154.17 256.58 154.17 24.23 243.37 0 281.91 25.33"/>
            <path class="cls-1" d="M67.55,205.8v28.76H84.79V205Z"/>
            <path class="cls-1" d="M203,39.13V67.66l16.69-3.48V35.24Zm0,116.51v28.87h16.69V154.87Zm0-39.15v29.17l16.69-.95V114.55Zm0-38.41v28.8l16.69-2.13V75.37Z"/>
            <polygon class="cls-1" points="58.97 206.18 58.97 234.56 42.95 234.56 42.95 206.9 58.97 206.18"/>
            <polygon class="cls-1" points="58.97 167.63 58.97 196.14 42.95 197.57 42.95 169.02 58.97 167.63"/>
            <polygon class="cls-1" points="58.97 128.84 58.97 157.58 42.95 159.68 42.95 131.34 58.97 128.84"/>
            <polygon class="cls-1" points="58.97 90.78 58.97 119.44 42.95 122.48 42.95 94.5 58.97 90.78"/>
            <polygon class="cls-1" points="84.79 84.79 84.79 114.55 67.55 117.81 67.55 88.79 84.79 84.79"/>
            <polygon class="cls-1" points="84.79 124.81 84.79 154.19 67.55 156.45 67.55 127.5 84.79 124.81"/>
            <polygon class="cls-1" points="67.55 205.8 84.79 205.03 84.79 234.56 67.55 234.56 67.55 205.8"/>
            <polygon class="cls-1" points="194.63 156.03 194.63 184.51 179.5 184.51 179.5 156.73 194.63 156.03"/>
            <polygon class="cls-1" points="194.63 117.46 194.63 146.13 179.5 146.99 179.5 119.21 194.63 117.46"/>
            <polygon class="cls-1" points="194.63 79.45 194.63 107.95 179.5 109.87 179.5 81.9 194.63 79.45"/>
            <polygon class="cls-1" points="194.63 41.08 194.63 69.42 179.5 72.58 179.5 44.6 194.63 41.08"/>
            <polygon class="cls-1" points="219.69 75.37 219.69 104.75 203 106.88 203 78.08 219.69 75.37"/>
            <polygon class="cls-1" points="219.69 114.55 219.69 144.71 203 145.66 203 116.49 219.69 114.55"/>
            <polygon class="cls-1" points="203 155.64 219.69 154.87 219.69 184.51 203 184.51 203 155.64"/>
            <polygon class="cls-1" points="219.69 35.24 219.69 64.18 203 67.66 203 39.13 219.69 35.24"/>
            <line class="cls-1" x1="67.55" y1="234.56" x2="67.55" y2="205.8"/>
            <polygon class="cls-1" points="67.55 166.88 67.55 195.37 84.79 193.84 84.79 165.39 67.55 166.88"/>
            <polygon class="cls-1" points="203 67.66 219.69 64.18 219.69 35.24 203 39.13 203 67.66"/>
            <polygon class="cls-1" points="219.69 75.37 203 78.09 203 78.08 219.69 75.37"/>
            <line class="cls-1" x1="219.69" y1="104.75" x2="203" y2="106.88"/>
            <polygon class="cls-1" points="203 145.66 219.69 144.71 219.69 114.55 203 116.49 203 145.66"/>
            <polygon class="cls-1" points="203 145.66 219.69 144.71 219.69 114.55 203 116.49 203 145.66"/>
            <polygon class="cls-1" points="203 184.51 219.69 184.51 219.69 154.87 203 155.64 203 184.51"/>
            <line class="cls-1" x1="203" y1="145.66" x2="203" y2="116.49"/>
            <line class="cls-1" x1="203" y1="184.51" x2="203" y2="155.64"/>
            <line class="cls-1" x1="203" y1="67.66" x2="203" y2="39.13"/>
            <polyline class="cls-1" points="203 106.88 203 78.09 203 78.08"/>
        </g>
    </g>
</svg>
