<svg xmlns="http://www.w3.org/2000/svg" height="80px" viewBox="0 0 557 305.06">
    <defs>
        <style>.cls-1{fill:#AA9053;}</style>
    </defs>
    <g id="Layer_2" data-name="Layer 2">
        <g id="icons">
            <polygon class="cls-1" points="497 141.21 497 304.56 473 304.56 473 159.69 274.68 79.12 76.1 159.47 76.1 304.56 51.1 304.56 51.1 140.97 274.2 50.71 497 141.21"/>
            <polygon class="cls-1" points="557 113.06 557 305.06 532.26 305.06 532.26 130.5 279.22 27.71 25.85 130.22 25.85 305.06 0 305.06 0 112.75 278.68 0 557 113.06"/>
            <polygon class="cls-1" points="497 141.21 497 304.56 473 304.56 473 159.69 274.68 79.12 76.1 159.47 76.1 304.56 51.1 304.56 51.1 140.97 274.2 50.71 497 141.21"/>
            <polygon class="cls-1" points="497 141.21 497 304.56 473 304.56 473 159.69 274.68 79.12 76.1 159.47 76.1 304.56 51.1 304.56 51.1 140.97 274.2 50.71 497 141.21"/>
            <path class="cls-1" d="M274.1,102.78l-163.49,61v140.8H179.5v-92H232v92H437.58v-141ZM338,280.06H313v-32h25Zm0-36H313v-32h25Zm29,36H342v-32h25Zm0-36H342v-32h25Z"/>
        </g>
    </g>
</svg>
