<svg xmlns="http://www.w3.org/2000/svg" height="90px" viewBox="0 0 293 168.29">
    <defs>
        <style>.cls-1{fill:#AA9053;}</style>
    </defs>
    <g id="Layer_2" data-name="Layer 2">
        <g id="icons">
            <path class="cls-1" d="M291,164.29h-7V66.75l.56.3a2,2,0,0,0,2.63-.68l4.49-7a2,2,0,0,0-.73-2.84L187,.24a2,2,0,0,0-1.91,0L84.33,55.29H29a2,2,0,0,0-1.32.5l-25,22A2,2,0,0,0,4,81.29l5,.06v82.94H2a2,2,0,0,0,0,4H291a2,2,0,0,0,0-4Zm-256.61,0v-46H58.64l.38,46Zm54.11,0H63l-.38-46H88.5Zm0-58.36H37.18a2,2,0,0,0-1.43.6l-8.18,8.36a2,2,0,0,0,1.43,3.4h1.39v46H13V81.39l75.5.88ZM133,164.29H114v-43h19Zm44-73v26H109v-26Zm-58.48-4V63.9h48.8V87.29Zm52.19,77H137v-43h33.71Zm109.29,0H174.71v-43H178a3,3,0,0,0,3-3v-28a3,3,0,0,0-3-3h-6.68V61.9a2,2,0,0,0-2-2h-52.8a2,2,0,0,0-2,2V87.29H108a3,3,0,0,0-3,3v28a3,3,0,0,0,3,3h2v43H92.5V64.57l93.5-51,94,51Z"/>
            <path class="cls-1" d="M266,88.29H196a3,3,0,0,0-3,3v58a3,3,0,0,0,3,3h70a3,3,0,0,0,3-3v-58A3,3,0,0,0,266,88.29Zm-69,4h32v56H197Zm68,56H233v-56h32Z"/>
            <path class="cls-1" d="M233,72.29H206a3,3,0,0,1-3-3v-12a3,3,0,0,1,3-3h27a3,3,0,0,1,3,3v12A3,3,0,0,1,233,72.29Zm-26-4h25v-10H207Z"/>
        </g>
    </g>
</svg>
