<svg xmlns="http://www.w3.org/2000/svg" height="100px" viewBox="0 0 431 264.56">
    <defs>
        <style>.cls-1{fill:#AA9053;}</style>
    </defs>
    <g id="Layer_2" data-name="Layer 2">
        <g id="icons">
            <path class="cls-1" d="M349.46,59.36h1.32V58h1.31V56.72h-2.63V55.4h1.32V54.08h1.31V52.77h1.32V51.45h-2.63v1.32h-1.32v1.31h-4V55.4h-2.64V54.08h2.64V52.77h1.32V51.45h1.32V48.81h1.32V47.49h1.32V46.17h-1.32V43.53h1.32V42.21h-1.32V39.58h-1.32V40.9h-4V39.58h1.32V38.26h1.32V36.94h1.32V35.62h-1.32V34.3h-2.64V33h2.64V30.34h-2.64V29h1.32V26.39h-1.32V23.74h1.32V22.42h-2.64v1.32h-1.32V22.42h1.32v-4h1.32V17.15h-1.32V15.83h-1.32V14.51h1.32V13.19h-1.32V11.87h-1.32V9.23H338.9v4h-1.31v2.64H335v1.32h-1.32v1.32h-1.32v1.31h1.32V21.1h-1.32v2.64h1.32v4h-1.32V26.39H331V29h1.32v1.32h-2.64v1.32H331V33h1.32V34.3h-2.64v4h-1.32V36.94H327V35.62H324.4V34.3H327V31.66H324.4V30.34h1.31V27.71H327V26.39H324.4V25.07h1.31V23.74H327V22.42H324.4v1.32h-1.32V21.1h1.32V15.83h-1.32V14.51h-1.32V11.87h1.32V10.55h-1.32V9.23h-1.32V2.64h-1.32V0H317.8V4h-1.32V6.59h-1.32V7.91h1.32V9.23h-1.32v7.92h1.32v1.32h-1.32V17.15h-1.32V15.83h-1.32v2.64h1.32v1.31h1.32V21.1h-2.64v2.64h1.32v1.33h1.32v2.64h-1.32V26.39h-2.63v1.32h1.31v2.63h1.32v1.32h-2.63v4h1.31v1.32h1.32v4h-1.32V39.58h-1.31V38.26h-1.32V40.9h-1.32v1.31h1.32v5.28h-1.32v1.32h1.32v2.64h1.32v2.63h1.31V55.4h2.64V58h-1.32V56.72h-2.63V55.4h-1.32V54.08h-2.64V55.4h1.32V58h-1.32V56.72h-1.32v2.64h1.32v1.32h1.32v2.64h1.32v1.32h2.63v2.63h-2.63V66h-1.32V64.64h-1.32V63.32h-1.32V66h-1.32V63.32h1.32v-4h-2.64v1.32h-2.64V59.36H302V58h1.32V56.72h1.32V55.4H302V54.08h1.32V52.77H302V50.13h1.32V48.81h-2.64v1.32h-1.31V47.49h1.31V46.17h-1.31V43.53h1.31V40.9h-1.31v1.31H298v-4h1.32V35.62H298V34.3h1.32V33H298V31.66H296.7V30.34h-1.32V26.39h-1.32v3.95h-1.32v4H290.1v1.32h-1.32v1.32h-1.32v2.64h1.32V40.9h-1.32v4h1.32v2.64h-1.32V46.17h-2.64v1.32h1.32v1.32H283.5v1.32h1.32v1.32h1.32v1.32h1.32v1.31h-2.64v2.64H283.5V62h1.32v1.32h1.32v1.32H283.5V63.32h-2.64v6.59h-1.32v1.32h1.32v1.32h1.32v1.32h1.32v1.32h1.32v1.32h-5.28v1.32h1.32v1.32h-2.64v2.63h1.32V83.1h2.64v1.32h2.64v1.32h-4V84.42h-2.64V83.1h-2.63v1.32h1.32v1.32h1.31v1.32h1.32v1.32h-1.32V91h1.32v2.64h1.32V95h6.6V96.3h1.32V95h2.64v4h2.64V93.66h1.32V95h1.32V93.66h6.59V92.34h1.32V91h2.64V88.38h1.32V85.74h-1.32V84.42h1.32V83.1h1.32V80.46h-1.32v1.32h-1.32V83.1h-2.64V81.78h1.32V79.15h1.32V77.83h2.64v1.32h2.63v1.31h1.32V79.15h1.32v1.31h2.64V79.15h1.32V83.1h2.64V80.46h1.32v1.32h2.63V80.46h2.64V79.15H331V77.83h1.32V75.19h1.32V73.87H335v1.32h1.32v2.64h2.63v-4h2.64V72.55h1.32v1.32h2.64v1.32h2.64V73.87h1.32V72.55h1.32V71.23h1.31V66h-1.31V64.64h1.31V63.32h1.32V62h1.32V60.68h-2.64V62h-2.63v1.32h-1.32V62h1.32V59.36Zm-34.3,7.91h4v2.64h-2.64V68.59h-1.32Zm5.28,2.64h4v1.32h-4Zm17.15-6.59h-1.32V62h1.32ZM331,58V56.72h-2.64V54.08h1.32V55.4h2.64V58Zm5.28,9.23h-2.64V66h4v1.31Zm6.59-2.63V66h-4V63.32h4ZM329.67,42.21H331v2.64h-1.32V43.53H327V40.9h1.32v1.31ZM307.25,67.27v1.32h1.32v1.32h-1.32v4h-1.32V72.55h-1.32v1.32h-1.32v1.32H302V72.55h1.32V71.23h1.32V69.91h1.32V67.27Zm0,9.24h-1.32V75.19h2.64v1.32Z"/>
            <rect class="cls-1" x="323.08" y="11.87" width="1.32" height="1.32"/>
            <rect class="cls-1" x="352.09" y="55.4" width="1.32" height="1.32"/>
            <rect class="cls-1" x="353.41" y="54.08" width="1.32" height="1.32"/>
            <rect class="cls-1" x="305.93" y="52.77" width="1.32" height="1.32"/>
            <rect class="cls-1" x="300.65" y="44.85" width="1.32" height="1.32"/>
            <rect class="cls-1" x="278.22" y="75.19" width="1.32" height="1.32"/>
            <rect class="cls-1" x="276.91" y="77.83" width="1.32" height="1.32"/>
            <rect class="cls-1" x="276.91" y="73.87" width="1.32" height="1.32"/>
            <rect class="cls-1" x="275.59" y="76.51" width="1.32" height="1.32"/>
            <path class="cls-1" d="M428.8,75.85S357.22,61,314.5,85.83s-80,50.16-114,48.83S163.87,130,163.87,130s25.32,12,68.62,4,77.4-35.05,77.4-35.05S350.4,65.38,428.8,75.85Z"/>
            <path class="cls-1" d="M429.67,210.6v48.47c-2-1.22-6.14-3.73-12-7.13V210.6a6,6,0,1,1,12,0Z"/>
            <path class="cls-1" d="M354.39,184.44v35.1q-4.92-2.32-10-4.63V184.44a5,5,0,0,1,10,0Z"/>
            <path class="cls-1" d="M297.1,170v26.05c-2.67-.9-5.34-1.75-8-2.56V170a4,4,0,0,1,8,0Z"/>
            <path class="cls-1" d="M250.47,159.67v22.61q-3-1-6-2.13V159.67a3,3,0,1,1,6,0Z"/>
            <path class="cls-1" d="M219.16,150.3v19.37q-2.7-1.24-5.33-2.51V150.3a2.67,2.67,0,0,1,5.33,0Z"/>
            <path class="cls-1" d="M194.52,144.81v13.34q-2.06-1.14-4-2.26V144.81a2,2,0,0,1,4,0Z"/>
            <path class="cls-1" d="M175.2,136.9v9.73q-1.74-1.11-3.33-2.16V136.9a1.67,1.67,0,0,1,3.33,0Z"/>
            <path class="cls-1" d="M160.54,130.33v6.36c-1-.74-1.92-1.39-2.66-1.95v-4.41a1.33,1.33,0,1,1,2.66,0Z"/>
            <path class="cls-1" d="M149.22,125.66V129l-2.67-1.64v-1.67a1.34,1.34,0,0,1,2.67,0Z"/>
            <path class="cls-1" d="M139.89,121.75v1.53l-2-1.2v-.33a1,1,0,0,1,2,0Z"/>
            <path class="cls-1" d="M431,264.56s-75.81-46.93-148.82-68.76-84.22-33.18-111-49.15c-24.65-15.32-17.32-14-43.3-27.32,0,0,23.32,17.32,32,28.65s30.06,22.81,107.16,49.1c78.69,26.84,132.16,67.48,132.16,67.48Z"/>
            <path class="cls-1" d="M380.08,264.56s-79-58.63-156.25-79.28S136.56,126.66,120.57,114,95.93,96,85.93,94c0,0,20.67,10.66,29.32,30.31s23.31,44.3,81.26,57.62,117.33,54.63,151.6,82.61Z"/>
            <path class="cls-1" d="M329.11,264.56S240.48,190,190.52,182.62s-74.4-29.31-87.49-58.29S70,83.36,48,80.7c0,0,36,11.32,41.65,38.63s19,56,49.28,60,37.64,1.78,74.94,21.2,79.28,64.07,79.28,64.07Z"/>
            <path class="cls-1" d="M275.88,264.56s-62.71-65.95-102-75.28-65.29-6.66-81.94-26-14-50-29.31-71.94S20,76.7,20,76.7s32-4.66,40,36S61.29,168,97.92,182s83.94-6.66,134.32,82.61Z"/>
            <path class="cls-1" d="M208,264.56s-35-69.95-83.51-72.62-64.71-26-72.6-65.29S26,70,0,76.7c0,0,35-4.09,36.82,46.58S52,188.94,107.25,195.94c47.3,6,47,47.3,58.79,68.62Z"/>
            <path class="cls-1" d="M142.34,264.56s-5.78-31.31-11.77-40.64-11.33-17.32-23.32-20.65-22.31.67-41.47-11.33-14.84-7.07-7.82-1.33c7.32,6,8,12,25.31,19.32s25.14,23.32,23.89,54.63Z"/>
        </g>
    </g>
</svg>
