<?xml version="1.0" encoding="utf-8"?>
<!-- Generator: Adobe Illustrator 26.0.3, SVG Export Plug-In . SVG Version: 6.00 Build 0)  -->
<svg version="1.1" id="Layer_1" xmlns="http://www.w3.org/2000/svg" xmlns:xlink="http://www.w3.org/1999/xlink" x="0px" y="0px"
	 viewBox="0 0 181.8 156" style="enable-background:new 0 0 181.8 156;" xml:space="preserve">
<style type="text/css">
	.st0{fill-rule:evenodd;clip-rule:evenodd;fill:#AA9053;}
	.st1{fill-rule:evenodd;clip-rule:evenodd;fill:#D10005;}
	.st2{fill:#D10005;}
	.st3{font-family:'ArialMT';}
	.st4{font-size:11.2813px;}
	.st5{fill-rule:evenodd;clip-rule:evenodd;fill:#A34704;}
</style>
<g id="Layer_2_00000003783325936594024190000009620286472098606992_">
</g>
<path class="st0" d="M71,51.1c-2.8-1.7-10.4-8.2-12.9-10.9c-12.2,9.5-9.2,14.2-18.3,15.3c-5,0.5-4.1-0.7-10.8,6.5
	c-2.5,2.7-6,6.9-8.4,10.3L34,61.1c7.8-7.7,6.4,2.8,16.2-7.8c2.7-2.9,4.1-6.4,7.3-8.4l5.6,5.2c-1.3,6.2-2.5,8.1-3,16.1
	c3.2-1.8,5.7-5.2,8.5-7.5L95,35c1,0.8,0.6,0.3,1.6,1.4c7.1,7.6,0.4,8.5-2.9,14.4c-1.5,2.7-3,6.5-4.2,8.7c9.6-1.4,2.6-8.3,18.6,0.3
	c29.6,16,18.5,0,30.4,5.5c8.6,3.9,23,12.5,30.8,14.9L136,53l-4.8,4.4c-3.4-2.5-5.1-5.6-8.2-8.4l-23-24.8c-3.1,2.7-3.8,3.9-6.5,7.3
	c-5.8,7.5-2.2,1.9-8.3,5.7C80.8,40,76,48.3,71,51.1z"/>
<path class="st1" d="M88.1,82c-3.8,1-17.1,5.4-19.5,7.5c8-1.8,15.4-2.5,23.5-3c13-1.2,27.7-0.9,40.5,0.6c6.1,0.7,12.2,1.7,18.2,3
	c8.7,1.9,15.8,4.3,24,7.3c2.4,1.1,4.8,1.9,7,3.2v0.1l-0.5-0.1c-0.5-0.3-2.6-0.8-3.3-1c-6.7-1.6-11.9-2.8-18.6-3.8
	c-5.5-0.8-11.2-1.5-16.7-1.9c-26.4-3.2-75-0.6-94.3,6.7h-0.3c2.3-5.1,14-15,18.6-18.1c0.4-0.3,3.8-2.4,3.9-2.6
	C49,80.1,22.8,88.3,0,96.8c2.1-2.1,7.4-4.7,10.1-6.2c6.8-3.8,15-7.4,22.3-10c5.6-2,11.4-3.7,17.2-5c19.1-4.3,54-6.2,82.3,1.4
	C119,75.9,100.3,78.7,88.1,82z"/>
<text transform="matrix(1 0 0 1 -0.8208 155.8218)" class="st2 st3 st4">R</text>
<text transform="matrix(1 0 0 1 17.667 155.8218)" class="st2 st3 st4">E</text>
<text transform="matrix(1 0 0 1 35.5459 155.8218)" class="st2 st3 st4">A</text>
<text transform="matrix(1 0 0 1 53.3979 155.8218)" class="st2 st3 st4">L</text>
<text transform="matrix(1 0 0 1 70.0317 155.8218)" class="st2 st3 st4">•</text>
<text transform="matrix(1 0 0 1 84.3081 155.8218)" class="st2 st3 st4">E</text>
<text transform="matrix(1 0 0 1 102.1865 155.8218)" class="st2 st3 st4">S</text>
<text transform="matrix(1 0 0 1 120.0386 155.8218)" class="st2 st3 st4">T</text>
<text transform="matrix(1 0 0 1 136.4341 155.8218)" class="st2 st3 st4">A</text>
<text transform="matrix(1 0 0 1 153.4648 155.8218)" class="st2 st3 st4">T</text>
<text transform="matrix(1 0 0 1 170.6816 155.8218)" class="st2 st3 st4">E </text>
<ellipse class="st5" cx="61.6" cy="14.9" rx="15.3" ry="14.9"/>
</svg>
