<svg xmlns="http://www.w3.org/2000/svg" viewBox="0 0 32 72.35">
    <defs>
        <style>
        .cls-3 {
            fill: #fff;
        }
            .cls-1 {
            fill-opacity: 0.5;
        }
            .cls-2 {
            fill: none;
            stroke: #fff;
            stroke-linecap: round;
            stroke-linejoin: round;
            stroke-width: 2px;
        }
</style>
    </defs>
        <g>
            <circle class="action-item__bg" cx="16" cy="56.35" r="16"/>
            <circle class="action-item__bg" cx="16" cy="16" r="16"/>
            <path class="action-item__heart-icon" d="M11.46,49.08a4.85,4.85,0,0,0-4.85,4.84c0,2.16.85,7.29,9.2,12.47a.88.88,0,0,0,.5.14.87.87,0,0,0,.49-.14C25.15,61.21,26,56.08,26,53.92a4.85,4.85,0,0,0-4.85-4.84c-2.67,0-4.84,2.94-4.84,2.94S14.13,49.08,11.46,49.08Z"/>
            <path class="action-item__share-icon" d="M20,19a3.54,3.54,0,0,0-1.56.37,3.6,3.6,0,0,0-1.24,1L11.88,17a3.37,3.37,0,0,0,0-1.94l5.28-3.37a3.56,3.56,0,0,0,4.57.9,3.71,3.71,0,0,0,1.61-1.92,3.76,3.76,0,0,0,0-2.54A3.57,3.57,0,0,0,17.19,7a3.82,3.82,0,0,0-.84,2.39,4,4,0,0,0,.15,1l-5.28,3.37a3.55,3.55,0,0,0-4-1.19,3.61,3.61,0,0,0-1.76,1.35,3.78,3.78,0,0,0,0,4.27,3.65,3.65,0,0,0,1.76,1.34,3.49,3.49,0,0,0,2.19.06,3.55,3.55,0,0,0,1.82-1.25l5.28,3.37a4.08,4.08,0,0,0-.15,1A3.81,3.81,0,0,0,17,24.7a3.67,3.67,0,0,0,1.62,1.35,3.56,3.56,0,0,0,3.94-.8,3.72,3.72,0,0,0,1-1.88,3.77,3.77,0,0,0-.2-2.13A3.68,3.68,0,0,0,22,19.58,3.59,3.59,0,0,0,20,19Zm0-11.8a2.11,2.11,0,0,1,1.21.38,2.2,2.2,0,0,1,.79,1,2.24,2.24,0,0,1,.13,1.28,2.29,2.29,0,0,1-.59,1.13,2.22,2.22,0,0,1-1.11.61,2.14,2.14,0,0,1-1.25-.13,2.17,2.17,0,0,1-1-.82,2.26,2.26,0,0,1,.27-2.79A2.18,2.18,0,0,1,20,7.16ZM8.41,18.22a2.17,2.17,0,0,1-1.2-.37,2.22,2.22,0,0,1-.8-1,2.33,2.33,0,0,1-.12-1.28,2.21,2.21,0,0,1,.59-1.13A2.18,2.18,0,0,1,8,13.84a2.16,2.16,0,0,1,2.22.94,2.24,2.24,0,0,1-.27,2.8A2.13,2.13,0,0,1,8.41,18.22ZM20,24.86a2.17,2.17,0,0,1-1.2-.37,2.25,2.25,0,0,1-.8-1,2.3,2.3,0,0,1-.12-1.27,2.24,2.24,0,0,1,.59-1.14,2.16,2.16,0,0,1,2.36-.48,2.1,2.1,0,0,1,1,.82,2.22,2.22,0,0,1,.37,1.23,2.25,2.25,0,0,1-.63,1.56A2.14,2.14,0,0,1,20,24.86Z"/>
        </g>
</svg>
